<svg width="1356" height="821" viewBox="0 0 1356 821" fill="none" xmlns="http://www.w3.org/2000/svg">
<path d="M84.4741 392.5C81.9812 392.5 79.9603 390.479 79.9603 387.987C79.9603 385.494 81.9812 383.473 84.4741 383.473C86.9671 383.473 88.988 385.494 88.988 387.987C88.988 390.479 86.9671 392.5 84.4741 392.5Z" fill="#9CE4DB"/>
<path d="M647.421 406.687C645.996 406.687 644.841 405.532 644.841 404.108C644.841 402.683 645.996 401.528 647.421 401.528C648.845 401.528 650 402.683 650 404.108C650 405.532 648.845 406.687 647.421 406.687Z" fill="#EE5A3F"/>
<path d="M56.7461 654.306C55.3215 654.306 54.1667 653.151 54.1667 651.727C54.1667 650.302 55.3215 649.147 56.7461 649.147C58.1706 649.147 59.3254 650.302 59.3254 651.727C59.3254 653.151 58.1706 654.306 56.7461 654.306Z" fill="#9CE4DB"/>
<path d="M274.702 438.929C273.278 438.929 272.123 437.774 272.123 436.35C272.123 434.925 273.278 433.77 274.702 433.77C276.127 433.77 277.282 434.925 277.282 436.35C277.282 437.774 276.127 438.929 274.702 438.929Z" fill="#9CE4DB"/>
<path d="M179.266 324.147C177.841 324.147 176.686 322.992 176.686 321.568C176.686 320.143 177.841 318.989 179.266 318.989C180.69 318.989 181.845 320.143 181.845 321.568C181.845 322.992 180.69 324.147 179.266 324.147Z" fill="#F1A357"/>
<path d="M587.45 441.508C584.958 441.508 582.937 439.487 582.937 436.994C582.937 434.502 584.958 432.481 587.45 432.481C589.943 432.481 591.964 434.502 591.964 436.994C591.964 439.487 589.943 441.508 587.45 441.508Z" fill="#F1A357"/>
<path d="M132.043 698.716C129.55 698.716 127.529 696.695 127.529 694.202C127.529 691.709 129.55 689.688 132.043 689.688C134.536 689.688 136.557 691.709 136.557 694.202C136.557 696.695 134.536 698.716 132.043 698.716Z" fill="#9CE4DB"/>
<path d="M1026.15 314.736C1028.24 316 1028.9 318.717 1027.64 320.802C1026.37 322.888 1023.66 323.554 1021.57 322.289C1019.48 321.024 1018.82 318.308 1020.08 316.222C1021.35 314.136 1024.06 313.471 1026.15 314.736Z" fill="#9CE4DB"/>
<path d="M1185.88 334.857C1187.07 335.579 1187.45 337.131 1186.73 338.323C1186.01 339.515 1184.45 339.895 1183.26 339.173C1182.07 338.45 1181.69 336.898 1182.41 335.706C1183.14 334.514 1184.69 334.134 1185.88 334.857Z" fill="#F1A357"/>
<path d="M1262.32 468.925C1263.51 469.647 1263.89 471.199 1263.17 472.391C1262.44 473.583 1260.89 473.963 1259.7 473.241C1258.51 472.518 1258.13 470.966 1258.85 469.774C1259.57 468.582 1261.13 468.202 1262.32 468.925Z" fill="#EE5A3F"/>
<path d="M1033.2 362.451C1034.39 363.174 1034.77 364.726 1034.05 365.918C1033.33 367.11 1031.78 367.49 1030.58 366.767C1029.39 366.045 1029.01 364.493 1029.73 363.301C1030.46 362.109 1032.01 361.729 1033.2 362.451Z" fill="#9CE4DB"/>
<path d="M1085.19 627.158C1086.39 627.881 1086.77 629.433 1086.04 630.625C1085.32 631.816 1083.77 632.197 1082.58 631.474C1081.38 630.751 1081 629.199 1081.73 628.007C1082.45 626.815 1084 626.435 1085.19 627.158Z" fill="#EE5A3F"/>
<path d="M1173.49 209 .276C1174.68 209.999 1175.06 211.551 1174.34 212.743C1173.61 213.935 1172.06 214.315 1170.87 213.592C1169.68 212.87 1169.3 211.318 1170.02 210.126C1170.74 208.934 1172.29 208.554 1173.49 209.276Z" fill="#9CE4DB"/>
<path d="M1200.09 327.241C1202.18 328.506 1202.84 331.222 1201.58 333.307C1200.31 335.393 1197.6 336.059 1195.51 334.794C1193.43 333.529 1192.76 330.813 1194.02 328.727C1195.29 326.641 1198.01 325.976 1200.09 327.241Z" fill="#9CE4DB"/>
</svg>