<svg width="1356" height="821" viewBox="0 0 1356 821" fill="none" xmlns="http://www.w3.org/2000/svg">
  <path d="M290.674 617.466C288.181 617.466 286.16 615.445 286.16 612.952C286.16 610.459 288.181 608.438 290.674 608.438C293.167 608.438 295.188 610.459 295.188 612.952C295.188 615.445 293.167 617.466 290.674 617.466Z" fill="#9CE4DB"/>
  <path d="M140.426 684.53C139.001 684.53 137.846 683.375 137.846 681.95C137.846 680.526 139.001 679.371 140.426 679.371C141.85 679.371 143.005 680.526 143.005 681.95C143.005 683.375 141.85 684.53 140.426 684.53Z" fill="#F1A357"/>
  <path d="M68.3531 671.072C66.9286 671.072 65.7738 669.917 65.7738 668.492C65.7738 667.068 66.9286 665.913 68.3531 665.913C69.7777 665.913 70.9325 667.068 70.9325 668.492C70.9325 669.917 69.7777 671.072 68.3531 671.072Z" fill="#EE5A3F"/>
  <path d="M626.786 671.072C625.361 671.072 624.206 669.917 624.206 668.492C624.206 667.068 625.361 665.913 626.786 665.913C628.21 665.913 629.365 667.068 629.365 668.492C629.365 669.917 628.21 671.072 626.786 671.072Z" fill="#9CE4DB"/>
  <path d="M313.393 272.56C311.968 272.56 310.813 271.405 310.813 269.981C310.813 268.556 311.968 267.401 313.393 267.401C314.817 267.401 315.972 268.556 315.972 269.981C315.972 271.405 314.817 272.56 313.393 272.56Z" fill="#EE5A3F"/>
  <path d="M21.9247 193.889C20.5001 193.889 19.3453 192.734 19.3453 191.31C19.3453 189.885 20.5001 188.731 21.9247 188.731C23.3492 188.731 24.504 189.885 24.504 191.31C24.504 192.734 23.3492 193.889 21.9247 193.889Z" fill="#9CE4DB"/>
  <path d="M114.137 499.544C111.644 499.544 109.623 497.523 109.623 495.03C109.623 492.537 111.644 490.516 114.137 490.516C116.63 490.516 118.651 492.537 118.651 495.03C118.651 497.523 116.63 499.544 114.137 499.544Z" fill="#9CE4DB"/>
  <path d="M583.581 415.715C581.088 415.715 579.067 413.694 579.067 411.201C579.067 408.708 581.088 406.687 583.581 406.687C586.074 406.687 588.095 408.708 588.095 411.201C588.095 413.694 586.074 415.715 583.581 415.715Z" fill="#9CE4DB"/>
  <path d="M905.369 416.279C907.455 417.544 908.12 420.26 906.856 422.345C905.591 424.431 902.875 425.097 900.789 423.832C898.703 422.567 898.038 419.851 899.303 417.765C900.567 415.679 903.284 415.014 905.369 416.279Z" fill="#EE5A3F"/>
  <path d="M1212.37 276.295C1213.56 277.017 1213.94 278.57 1213.22 279.761C1212.49 280.953 1210.94 281.333 1209.75 280.611C1208.56 279.888 1208.18 278.336 1208.9 277.144C1209.62 275.952 1211.17 275.572 1212.37 276.295Z" fill="#EE5A3F"/>
  <path d="M1240.56 402.599C1241.75 403.321 1242.13 404.873 1241.41 406.065C1240.68 407.257 1239.13 407.637 1237.94 406.915C1236.75 406.192 1236.37 404.64 1237.09 403.448C1237.81 402.256 1239.36 401.876 1240.56 402.599Z" fill="#9CE4DB"/>
  <path d="M948.931 472.211C950.122 472.934 950.503 474.486 949.78 475.678C949.057 476.87 947.505 477.25 946.313 476.527C945.121 475.804 944.741 474.252 945.464 473.06C946.187 471.869 947.739 471.488 948.931 472.211Z" fill="#9CE4DB"/>
  <path d="M970.542 616.663C971.734 617.386 972.114 618.938 971.391 620.13C970.669 621.322 969.116 621.702 967.925 620.979C966.733 620.257 966.353 618.704 967.075 617.513C967.798 616.321 969.35 615.941 970.542 616.663Z" fill="#F1A357"/>
  <path d="M1114.02 502.962C1116.11 504.227 1116.77 506.943 1115.51 509.029C1114.24 511.114 1111.53 511.78 1109.44 510.515C1107.35 509.25 1106.69 506.534 1107.95 504.448C1109.22 502.362 1111.93 501.697 1114.02 502.962Z" fill="#9CE4DB"/>
  <path d="M1318.51 370.178C1320.6 371.443 1321.26 374.159 1320 376.245C1318.73 378.331 1316.02 378.996 1313.93 377.731C1311.84 376.466 1311.18 373.75 1312.44 371.665C1313.71 369.579 1316.42 368.913 1318.51 370.178Z" fill="#9CE4DB"/>
</svg>