<svg width="1356" height="821" viewBox="0 0 1356 821" fill="none" xmlns="http://www.w3.org/2000/svg">
    <path d="M342.411 464.723C339.918 464.723 337.897 462.702 337.897 460.209C337.897 457.716 339.918 455.695 342.411 455.695C344.904 455.695 346.925 457.716 346.925 460.209C346.925 462.702 344.904 464.723 342.411 464.723Z" fill="#EE5A3F"/>
    <path d="M148.313 749.742C146.889 749.742 145.734 748.588 145.734 747.163C145.734 745.739 146.889 744.584 148.313 744.584C149.738 744.584 150.893 745.739 150.893 747.163C150.893 748.588 149.738 749.742 148.313 749.742Z" fill="#EE5A3F"/>
    <path d="M2.57933 607.877C1.15478 607.877 -3.86238e-05 606.723 -3.86238e-05 605.298C-3.86238e-05 603.874 1.15478 602.719 2.57933 602.719C4.00387 602.719 5.15869 603.874 5.15869 605.298C5.15869 606.723 4.00387 607.877 2.57933 607.877Z" fill="#EE5A3F"/>
    <path d="M259.226 579.504C257.802 579.504 256.647 578.35 256.647 576.925C256.647 575.501 257.802 574.346 259.226 574.346C260.651 574.346 261.806 575.501 261.806 576.925C261.806 578.35 260.651 579.504 259.226 579.504Z" fill="#9CE4DB"/>
    <path d="M73.5119 375.735C72.0874 375.735 70.9326 374.58 70.9326 373.155C70.9326 371.731 72.0874 370.576 73.5119 370.576C74.9365 370.576 76.0913 371.731 76.0913 373.155C76.0913 374.58 74.9365 375.735 73.5119 375.735Z" fill="#EE5A3F"/>
    <path d="M217.806 787.704C216.382 787.704 215.227 786.55 215.227 785.125C215.227 783.7 216.382 782.546 217.806 782.546C219.231 782.546 220.386 783.7 220.386 785.125C220.386 786.55 219.231 787.704 217.806 787.704Z" fill="#9CE4DB"/>
    <path d="M143.8 524.048C141.307 524.048 139.286 522.027 139.286 519.534C139.286 517.041 141.307 515.02 143.8 515.02C146.293 515.02 148.313 517.041 148.313 519.534C148.313 522.027 146.293 524.048 143.8 524.048Z" fill="#F1A357"/>
    <path d="M5.80362 723.949C3.31066 723.949 1.28973 721.928 1.28973 719.435C1.28973 716.942 3.31066 714.921 5.80362 714.921C8.29657 714.921 10.3175 716.942 10.3175 719.435C10.3175 721.928 8.29657 723.949 5.80362 723.949Z" fill="#9CE4DB"/>
    <path d="M1084.53 607.569C1086.61 608.834 1087.28 611.55 1086.01 613.636C1084.75 615.721 1082.03 616.387 1079.95 615.122C1077.86 613.857 1077.2 611.141 1078.46 609.055C1079.73 606.97 1082.44 606.304 1084.53 607.569Z" fill="#9CE4DB"/>
    <path d="M1239.35 382.683C1240.54 383.405 1240.92 384.957 1240.2 386.149C1239.48 387.341 1237.93 387.721 1236.73 386.999C1235.54 386.276 1235.16 384.724 1235.88 383.532C1236.61 382.34 1238.16 381.96 1239.35 382.683Z" fill="#EE5A3F"/>
    <path d="M772.141 99.358C773.333 100.081 773.713 101.633 772.99 102.825C772.267 104.017 770.715 104.397 769.523 103.674C768.332 102.951 767.951 101.399 768.674 100.207C769.397 99.0156 770.949 98.6353 772.141 99.358Z" fill="#9CE4DB"/>
    <path d="M832.152 591.773C833.344 592.496 833.724 594.048 833.001 595.24C832.278 596.432 830.726 596.812 829.534 596.089C828.343 595.367 827.962 593.814 828.685 592.623C829.408 591.431 830.96 591.051 832.152 591.773Z" fill="#EE5A3F"/>
    <path d="M1036.09 805.471C1037.29 806.194 1037.67 807.746 1036.94 808.938C1036.22 810.13 1034.67 810.51 1033.48 809.787C1032.28 809.064 1031.9 807.512 1032.63 806.321C1033.35 805.129 1034.9 804.748 1036.09 805.471Z" fill="#9CE4DB"/>
    <path d="M1101.64 467.411C1103.72 468.676 1104.39 471.392 1103.12 473.478C1101.86 475.563 1099.14 476.229 1097.06 474.964C1094.97 473.699 1094.3 470.983 1095.57 468.897C1096.83 466.812 1099.55 466.146 1101.64 467.411Z" fill="#F1A357"/>
</svg>